<svg width="88" height="86" viewBox="0 0 88 86" fill="none" xmlns="http://www.w3.org/2000/svg">
<path d="M0.536 70.704V53.296C5.144 53.296 9.58133 53.296 13.848 53.296C18.1573 53.296 22.2107 53.296 26.008 53.296H56.344C60.1413 53.296 64.1947 53.296 68.504 53.296C72.8133 53.296 77.2507 53.296 81.816 53.296V70.704C77.2507 70.704 72.8133 70.704 68.504 70.704C64.1947 70.704 60.1413 70.704 56.344 70.704H26.008C22.2107 70.704 18.1573 70.704 13.848 70.704C9.58133 70.704 5.144 70.704 0.536 70.704ZM11.672 86C12.3973 81.776 13.1227 77.488 13.848 73.136C14.616 68.7413 15.4693 63.7707 16.408 58.224L21.464 28.592C22.104 24.7947 22.68 21.4027 23.192 18.416C23.704 15.3867 24.216 12.4427 24.728 9.584C25.24 6.68266 25.752 3.58933 26.264 0.303993H43.928C43.3733 3.41866 42.8613 6.40533 42.392 9.264C41.9227 12.1227 41.4107 15.1093 40.856 18.224C40.344 21.296 39.768 24.7733 39.128 28.656L34.008 58.224C33.112 63.6 32.3013 68.464 31.576 72.816C30.8507 77.168 30.104 81.5627 29.336 86H11.672ZM6.552 33.392V16.048C11.16 16.048 15.6187 16.048 19.928 16.048C24.2373 16.048 28.2693 16.048 32.024 16.048H62.36C66.1573 16.048 70.2107 16.048 74.52 16.048C78.8293 16.048 83.2667 16.048 87.832 16.048V33.392C83.2667 33.392 78.8293 33.392 74.52 33.392C70.2107 33.392 66.1573 33.392 62.36 33.392H32.024C28.2693 33.392 24.2373 33.392 19.928 33.392C15.6187 33.392 11.16 33.392 6.552 33.392ZM44.248 86C44.9733 81.776 45.6987 77.488 46.424 73.136C47.192 68.7413 48.0453 63.7707 48.984 58.224L54.04 28.656C54.7227 24.816 55.2987 21.3813 55.768 18.352C56.28 15.3227 56.792 12.3787 57.304 9.52C57.816 6.66133 58.328 3.58933 58.84 0.303993H76.504C75.9493 3.41866 75.4373 6.40533 74.968 9.264C74.4987 12.1227 73.9867 15.1093 73.432 18.224C72.92 21.296 72.344 24.7733 71.704 28.656L66.584 58.224C65.688 63.6 64.8773 68.464 64.152 72.816C63.4267 77.168 62.68 81.5627 61.912 86H44.248Z" fill="#0A1A5D" fill-opacity="0.14"/>
</svg>
